<svg width="25" height="24" viewBox="0 0 25 24" fill="none" xmlns="http://www.w3.org/2000/svg">
<path d="M12.0978 22.75C6.16784 22.75 1.34784 17.93 1.34784 12C1.34784 6.07 6.16784 1.25 12.0978 1.25C18.0278 1.25 22.8478 6.07 22.8478 12C22.8478 17.93 18.0278 22.75 12.0978 22.75ZM12.0978 2.75C6.99784 2.75 2.84784 6.9 2.84784 12C2.84784 17.1 6.99784 21.25 12.0978 21.25C17.1978 21.25 21.3478 17.1 21.3478 12C21.3478 6.9 17.1978 2.75 12.0978 2.75Z" fill="#676767"/>
<path d="M12.0978 15.25C11.6878 15.25 11.3478 14.91 11.3478 14.5V8.5C11.3478 8.09 11.6878 7.75 12.0978 7.75C12.5078 7.75 12.8478 8.09 12.8478 8.5V14.5C12.8478 14.91 12.5078 15.25 12.0978 15.25Z" fill="#676767"/>
<path d="M12.0978 16.2499C11.9078 16.2499 11.7178 16.1799 11.5678 16.0299L8.56784 13.0299C8.27784 12.7399 8.27784 12.2599 8.56784 11.9699C8.85784 11.6799 9.33784 11.6799 9.62784 11.9699L12.0978 14.4399L14.5678 11.9699C14.8578 11.6799 15.3378 11.6799 15.6278 11.9699C15.9178 12.2599 15.9178 12.7399 15.6278 13.0299L12.6278 16.0299C12.4778 16.1799 12.2878 16.2499 12.0978 16.2499Z" fill="#676767"/>
</svg>
