<svg width="25" height="24" viewBox="0 0 25 24" fill="none" xmlns="http://www.w3.org/2000/svg">
<path d="M12.0978 1.25C18.0278 1.25 22.8478 6.07 22.8478 12C22.8478 17.93 18.0278 22.75 12.0978 22.75C6.16784 22.75 1.34784 17.93 1.34784 12C1.34784 6.07 6.16784 1.25 12.0978 1.25ZM12.0978 21.25C17.1978 21.25 21.3478 17.1 21.3478 12C21.3478 6.9 17.1978 2.75 12.0978 2.75C6.99784 2.75 2.84784 6.9 2.84784 12C2.84784 17.1 6.99784 21.25 12.0978 21.25Z" fill="#676767"/>
<path d="M12.0978 8.75C12.5078 8.75 12.8478 9.09 12.8478 9.5L12.8478 15.5C12.8478 15.91 12.5078 16.25 12.0978 16.25C11.6878 16.25 11.3478 15.91 11.3478 15.5L11.3478 9.5C11.3478 9.09 11.6878 8.75 12.0978 8.75Z" fill="#676767"/>
<path d="M12.0978 7.75006C12.2878 7.75006 12.4778 7.82006 12.6278 7.97006L15.6278 10.9701C15.9178 11.2601 15.9178 11.7401 15.6278 12.0301C15.3378 12.3201 14.8578 12.3201 14.5678 12.0301L12.0978 9.56006L9.62784 12.0301C9.33784 12.3201 8.85784 12.3201 8.56784 12.0301C8.27784 11.7401 8.27784 11.2601 8.56784 10.9701L11.5678 7.97006C11.7178 7.82006 11.9078 7.75006 12.0978 7.75006Z" fill="#676767"/>
</svg>
