<svg width="21" height="20" viewBox="0 0 21 20" fill="none" xmlns="http://www.w3.org/2000/svg">
<path d="M10.0978 20C15.6178 20 20.0978 15.52 20.0978 10C20.0978 4.48 15.6178 -3.91654e-07 10.0978 -8.74228e-07C4.57784 -1.3568e-06 0.0978407 4.48 0.0978402 10C0.0978397 15.52 4.57784 20 10.0978 20ZM6.56784 8.97L9.56784 5.97C9.71784 5.82 9.90784 5.75 10.0978 5.75C10.2878 5.75 10.4778 5.82 10.6278 5.97L13.6278 8.97C13.9178 9.26 13.9178 9.74 13.6278 10.03C13.3378 10.32 12.8578 10.32 12.5678 10.03L10.8478 8.31L10.8478 13.5C10.8478 13.91 10.5078 14.25 10.0978 14.25C9.68784 14.25 9.34784 13.91 9.34784 13.5L9.34784 8.31L7.62784 10.03C7.33784 10.32 6.85784 10.32 6.56784 10.03C6.27784 9.74 6.27784 9.26 6.56784 8.97Z" fill="#FF3131"/>
</svg>
